G04 GENERATED BY PULSONIX 12.5 GERBER.DLL 9449*
G04 #@! TF.GenerationSoftware,Pulsonix,Pulsonix,12.5.9449*
G04 #@! TF.CreationDate,2025-04-26T21:18:15--1:00*
G04 #@! TF.Part,Single*
%FSLAX35Y35*%
%LPD*%
%MOMM*%
G04 #@! TF.FileFunction,Legend,Top*
G04 #@! TF.FilePolarity,Positive*
G04 #@! TA.AperFunction,Profile*
%ADD10C,0.30000*%
G04 #@! TA.AperFunction,Material*
%ADD11C,0.20000*%
%ADD13C,0.20320*%
%ADD75C,0.50000*%
G04 #@! TD.AperFunction*
%ADD76C,0.20000*%
%ADD107C,0.45000*%
G04 #@! TD.AperFunction*
X0Y0D02*
D02*
D10*
X703925Y3315500D02*
X6103925D01*
G75*
G02*
X6403925Y3015500I0J-300000D01*
G01*
Y515500D01*
G75*
G02*
X6103925Y215500I-300000J0D01*
G01*
X703925D01*
G75*
G02*
X403925Y515500I0J300000D01*
G01*
Y3015500D01*
G75*
G02*
X703925Y3315500I300000J0D01*
G01*
D02*
D11*
X509425Y980000D02*
Y1194000D01*
X529425Y1214000D01*
X997425D01*
X1017425Y1194000D01*
Y980000D01*
X997425Y960000D01*
X529425D01*
X509425Y980000D01*
X1234931Y2844253D02*
X1122348Y2779253D01*
X1247348Y2562747D01*
X1359931Y2627747D01*
X1234931Y2844253D01*
G36*
X1234931Y2844253D02*
X1122348Y2779253D01*
X1247348Y2562747D01*
X1359931Y2627747D01*
X1234931Y2844253D01*
G37*
X1715925Y3309500D02*
Y1059500D01*
X3415925D01*
Y3309500D01*
X1715925D01*
X2080925Y1767000D02*
G75*
G03*
X1780925I-150000J0D01*
G01*
G75*
G03*
X2080925I150000J0D01*
G01*
X3585925Y1596000D02*
X3655925D01*
X3585925Y1721000D02*
X3655925D01*
X3585925Y1786500D02*
X3655925D01*
X3585925Y1911500D02*
X3655925D01*
X3585925Y1977000D02*
X3655925D01*
X3585925Y2102000D02*
X3655925D01*
X3606925Y976500D02*
Y816500D01*
X3620925Y1341000D02*
G75*
G03*
Y1214000I0J-63500D01*
G01*
G75*
G03*
Y1341000I0J63500D01*
G01*
Y1531500D02*
G75*
G03*
Y1404500I0J-63500D01*
G01*
G75*
G03*
Y1531500I0J63500D01*
G01*
X3761925Y976500D02*
Y816500D01*
X3921925Y903000D02*
X5521925D01*
Y3303000D01*
X3921925D01*
Y903000D01*
X4025425Y2770500D02*
Y3215000D01*
X4279425D01*
Y3024500D01*
X4533425D01*
Y3215000D01*
X4787425D01*
Y3024500D01*
X5104925D01*
Y3215000D01*
X5422425D01*
Y2770500D01*
X4152425Y3215000D02*
Y2770500D01*
X5717425Y1115500D02*
Y1185500D01*
X5744925Y1405500D02*
X5814925D01*
X5744925Y1530500D02*
X5814925D01*
X5744925Y1596000D02*
X5814925D01*
X5744925Y1721000D02*
X5814925D01*
X5779925Y1976000D02*
G75*
G03*
Y1849000I0J-63500D01*
G01*
G75*
G03*
Y1976000I0J63500D01*
G01*
Y2166500D02*
G75*
G03*
Y2039500I0J-63500D01*
G01*
G75*
G03*
Y2166500I0J63500D01*
G01*
X5842425Y1115500D02*
Y1185500D01*
D02*
D13*
X191925Y1272000D02*
Y2172000D01*
X1641925D01*
X801919Y2594253D02*
X1234931Y2844253D01*
X1359931Y2627747D01*
X926919Y2377747D01*
X801919Y2594253D01*
X864419Y2486000D02*
X734515Y2411000D01*
X991925Y1272000D02*
X191925D01*
X1121425Y479000D02*
Y679000D01*
X1421425D01*
Y479000D01*
X1121425D01*
Y860000D02*
Y1060000D01*
X1421425D01*
Y860000D01*
X1121425D01*
X1297431Y2736000D02*
X1427335Y2811000D01*
X1517805Y274200D02*
Y1010800D01*
X1641925Y1272000D02*
X1491925D01*
X1641925Y2172000D02*
Y1272000D01*
X2747165Y274200D02*
X1517805D01*
X2747165Y1010800D02*
X1517805D01*
X2747165D02*
Y274200D01*
X3074825Y388500D02*
X2985925D01*
X3176425Y286900D02*
Y490100D01*
X3445925Y2374500D02*
X3495925D01*
X3445925D02*
Y2974500D01*
X3495925D01*
X3532025Y490100D02*
Y286900D01*
X3074825D01*
Y490100D01*
X3532025D01*
X3557425Y833000D02*
G75*
G02*
X3239925Y515500I-317500J0D01*
G01*
G75*
G02*
X2922425Y833000I0J317500D01*
G01*
Y871100D01*
G75*
G02*
X2985925Y1023500I215713J-451D01*
G01*
X3493925D01*
G75*
G02*
X3557425Y871100I-152213J-152851D01*
G01*
Y833000D01*
X3620925Y388500D02*
X3532025D01*
X3695925Y2524500D02*
Y2824500D01*
X3545925D01*
Y2524500D01*
X3695925D01*
X3795925Y2374500D02*
X3745925D01*
X3795925D02*
Y2974500D01*
X3745925D01*
X3938425Y420250D02*
Y610750D01*
X3970175Y388500D02*
X3938425Y420250D01*
X3970175Y642500D02*
X3938425Y610750D01*
X4224175Y388500D02*
X4192425Y420250D01*
X4224175Y642500D02*
X4192425Y610750D01*
X4255925Y642500D02*
X4224175D01*
X4192425Y610750D01*
X4160675Y642500D01*
X3970175D01*
X4414675Y388500D02*
X4224175D01*
X4192425Y420250D01*
X4160675Y388500D01*
X3970175D01*
X4478175D02*
X4446425Y420250D01*
X4478175Y642500D02*
X4446425Y610750D01*
X4509925Y642500D02*
X4478175D01*
X4446425Y610750D01*
X4414675Y642500D01*
X4224175D01*
X4668675Y388500D02*
X4478175D01*
X4446425Y420250D01*
X4414675Y388500D01*
X4224175D01*
X4732175D02*
X4700425Y420250D01*
X4732175Y642500D02*
X4700425Y610750D01*
X4763925Y642500D02*
X4732175D01*
X4700425Y610750D01*
X4668675Y642500D01*
X4478175D01*
X4922675Y388500D02*
X4732175D01*
X4700425Y420250D01*
X4668675Y388500D01*
X4478175D01*
X4986175D02*
X4954425Y420250D01*
X4986175Y642500D02*
X4954425Y610750D01*
X5017925Y642500D02*
X4986175D01*
X4954425Y610750D01*
X4922675Y642500D01*
X4732175D01*
X5176675Y388500D02*
X4986175D01*
X4954425Y420250D01*
X4922675Y388500D01*
X4732175D01*
X5271925Y642500D02*
X5240175D01*
X5208425Y610750D01*
X5176675Y642500D01*
X4986175D01*
X5430675Y388500D02*
X5240175D01*
X5208425Y420250D01*
X5176675Y388500D01*
X4986175D01*
X5430675Y642500D02*
X5271925D01*
X5462425Y420250D02*
X5430675Y388500D01*
X5462425Y420250D02*
Y610750D01*
X5430675Y642500D01*
X5558815Y2756989D02*
X5638190Y2619507D01*
X5570436Y2800360D02*
X5558815Y2756989D01*
X5638190Y2619507D02*
X5654065Y2592011D01*
X5697436Y2580390D01*
X5685815Y2537018D01*
X5781065Y2372041D01*
X5735414Y2895610D02*
X5778785Y2883989D01*
X5735414Y2895610D02*
X5570436Y2800360D01*
X5765190Y2399537D02*
X5781065Y2372041D01*
X5824436Y2360419D01*
X5812815Y2317048D01*
X5908065Y2152070D01*
X5778785Y2883989D02*
X5874035Y2719011D01*
X5862414Y2675640D01*
X5905785Y2664018D01*
X6001035Y2499041D01*
X5781065Y2372041D02*
X5824436Y2360419D01*
X5892190Y2179566D02*
X5908065Y2152070D01*
X5951436Y2140449D01*
X5939815Y2097078D01*
X6035065Y1932100D01*
X5905785Y2664018D02*
X6001035Y2499041D01*
X5989414Y2455669D01*
X6032785Y2444048D01*
X6128035Y2279070D01*
X5908065Y2152070D02*
X5951436Y2140449D01*
X5985924Y1104500D02*
X6035925Y1104501D01*
X5985924Y1704500D02*
X6035925D01*
X5985924D02*
Y1104500D01*
X6001035Y2499041D02*
X5989414Y2455669D01*
X6032785Y2444048D02*
X6128035Y2279070D01*
X6116414Y2235699D01*
X6159785Y2224078D01*
X6255035Y2059100D01*
X6035065Y1932100D02*
X6078436Y1920478D01*
X6085925Y1554500D02*
Y1254500D01*
X6235925D01*
Y1554500D01*
X6085925D01*
X6128035Y2279070D02*
X6116414Y2235699D01*
X6243414Y2015728D02*
X6078436Y1920478D01*
X6255035Y2059100D02*
X6243414Y2015728D01*
X6335926Y1104500D02*
X6285925D01*
X6335926Y1704500D02*
X6285925Y1704499D01*
X6335926Y1704500D02*
Y1104500D01*
D02*
D75*
X1930925Y1867000D02*
Y1667000D01*
X2030925Y1767000D02*
X1830925D01*
D02*
D76*
X489484Y998275D02*
X397719Y1074746D01*
Y998275D02*
X489484Y1074746D01*
X481837Y1111222D02*
X489484Y1126516D01*
Y1141810D01*
X481837Y1157104D01*
X466543Y1164751D01*
X451249Y1157104D01*
X443601Y1141810D01*
Y1126516D01*
Y1141810D02*
X435954Y1157104D01*
X420660Y1164751D01*
X405366Y1157104D01*
X397719Y1141810D01*
Y1126516D01*
X405366Y1111222D01*
X476629Y827676D02*
X499571Y827676D01*
Y820029D01*
X491924Y804735D01*
X484276Y797088D01*
X468982Y789441D01*
X453688D01*
X438394Y797088D01*
X430747Y804735D01*
X423100Y820029D01*
Y850618D01*
X430747Y865912D01*
X438394Y873559D01*
X453688Y881206D01*
X468982D01*
X484276Y873559D01*
X491924Y865912D01*
X499571Y850618D01*
X528400Y789441D02*
X528400Y881206D01*
X604871Y789441D01*
Y881206D01*
X633700Y789441D02*
X633700Y881206D01*
X679582D01*
X694876Y873559D01*
X702524Y865912D01*
X710171Y850618D01*
Y820029D01*
X702524Y804735D01*
X694876Y797088D01*
X679582Y789441D01*
X633700D01*
X804100Y820029D02*
X804100Y850618D01*
X811747Y865912D01*
X819394Y873559D01*
X834688Y881206D01*
X849982D01*
X865276Y873559D01*
X872924Y865912D01*
X880571Y850618D01*
Y820029D01*
X872924Y804735D01*
X865276Y797088D01*
X849982Y789441D01*
X834688D01*
X819394Y797088D01*
X811747Y804735D01*
X804100Y820029D01*
X909400Y881206D02*
X909400Y812382D01*
X917047Y797088D01*
X932341Y789441D01*
X962929D01*
X978224Y797088D01*
X985871Y812382D01*
Y881206D01*
X1052935Y789441D02*
X1052935Y881206D01*
X1014700D02*
X1091171Y881206D01*
X1119616Y2332505D02*
X1073734Y2411976D01*
X1113469Y2434917D01*
X1130537Y2435941D01*
X1140984Y2433143D01*
X1155254Y2423721D01*
X1170548Y2397230D01*
X1171573Y2380162D01*
X1168773Y2369715D01*
X1159351Y2355446D01*
X1119616Y2332505D01*
X1263789Y2415743D02*
X1210809Y2385155D01*
X1230401Y2458278D01*
X1229377Y2475346D01*
X1215107Y2484768D01*
X1198039Y2483743D01*
X1178171Y2472273D01*
X1168750Y2458003D01*
X1174250Y344941D02*
X1174250Y436706D01*
X1250721Y344941D01*
Y436706D01*
X1279550Y375529D02*
X1279550Y406118D01*
X1287197Y421412D01*
X1294844Y429059D01*
X1310138Y436706D01*
X1325432D01*
X1340726Y429059D01*
X1348374Y421412D01*
X1356021Y406118D01*
Y375529D01*
X1348374Y360235D01*
X1340726Y352588D01*
X1325432Y344941D01*
X1310138D01*
X1294844Y352588D01*
X1287197Y360235D01*
X1279550Y375529D01*
X1174250Y725941D02*
X1174250Y817706D01*
X1250721Y725941D01*
Y817706D01*
X1356021Y741235D02*
X1348374Y733588D01*
X1333079Y725941D01*
X1310138D01*
X1294844Y733588D01*
X1287197Y741235D01*
X1279550Y756529D01*
Y787118D01*
X1287197Y802412D01*
X1294844Y810059D01*
X1310138Y817706D01*
X1333079D01*
X1348374Y810059D01*
X1356021Y802412D01*
X1398425Y2194941D02*
X1474896Y2286706D01*
X1398425D02*
X1474896Y2194941D01*
X1519019D02*
X1549607Y2194941D01*
X1534313D02*
X1534313Y2286706D01*
X1519019Y2271412D01*
X1695984Y3012650D02*
X1695984Y3043238D01*
Y3027944D02*
X1604219Y3027944D01*
Y3012650D02*
X1604219Y3043238D01*
X1680690Y3145021D02*
X1688337Y3137374D01*
X1695984Y3122079D01*
Y3099138D01*
X1688337Y3083844D01*
X1680690Y3076197D01*
X1665396Y3068550D01*
X1634807D01*
X1619513Y3076197D01*
X1611866Y3083844D01*
X1604219Y3099138D01*
Y3122079D01*
X1611866Y3137374D01*
X1619513Y3145021D01*
X1695984Y3189144D02*
X1695984Y3219732D01*
Y3204438D02*
X1604219Y3204438D01*
X1619513Y3189144D01*
X2838984Y592050D02*
X2747219Y592050D01*
X2793101D02*
X2793101Y614991D01*
X2747219Y668521D01*
X2793101Y614991D02*
X2838984Y668521D01*
Y712644D02*
X2838984Y743232D01*
Y727938D02*
X2747219Y727938D01*
X2762513Y712644D01*
X3151200Y1808441D02*
X3151200Y1900206D01*
X3204729D01*
X3220024Y1892559D01*
X3227671Y1877265D01*
X3220024Y1861971D01*
X3204729Y1854324D01*
X3151200D01*
X3204729D02*
X3227671Y1808441D01*
X3271794D02*
X3302382Y1808441D01*
X3287088D02*
X3287088Y1900206D01*
X3271794Y1884912D01*
X3214700Y1998941D02*
X3214700Y2090706D01*
X3268229D01*
X3283524Y2083059D01*
X3291171Y2067765D01*
X3283524Y2052471D01*
X3268229Y2044824D01*
X3214700D01*
X3268229D02*
X3291171Y1998941D01*
X3381176D02*
X3320000Y1998941D01*
X3373529Y2052471D01*
X3381176Y2067765D01*
X3373529Y2083059D01*
X3358235Y2090706D01*
X3335294D01*
X3320000Y2083059D01*
X3232900Y344941D02*
X3232900Y436706D01*
X3278782D01*
X3294076Y429059D01*
X3301724Y421412D01*
X3309371Y406118D01*
Y375529D01*
X3301724Y360235D01*
X3294076Y352588D01*
X3278782Y344941D01*
X3232900D01*
X3353494D02*
X3384082Y344941D01*
X3368788D02*
X3368788Y436706D01*
X3353494Y421412D01*
X3206050Y1363941D02*
X3236638Y1363941D01*
X3221344D02*
X3221344Y1455706D01*
X3206050D02*
X3236638Y1455706D01*
X3261950Y1394529D02*
X3261950Y1425118D01*
X3269597Y1440412D01*
X3277244Y1448059D01*
X3292538Y1455706D01*
X3307832D01*
X3323126Y1448059D01*
X3330774Y1440412D01*
X3338421Y1425118D01*
Y1394529D01*
X3330774Y1379235D01*
X3323126Y1371588D01*
X3307832Y1363941D01*
X3292538D01*
X3277244Y1371588D01*
X3269597Y1379235D01*
X3261950Y1394529D01*
X3382544Y1363941D02*
X3413132Y1363941D01*
X3397838D02*
X3397838Y1455706D01*
X3382544Y1440412D01*
X3463297Y1371588D02*
X3478591Y1363941D01*
X3493885D01*
X3509179Y1371588D01*
X3516826Y1386882D01*
X3509179Y1402176D01*
X3493885Y1409824D01*
X3478591D01*
X3493885D02*
X3509179Y1417471D01*
X3516826Y1432765D01*
X3509179Y1448059D01*
X3493885Y1455706D01*
X3478591D01*
X3463297Y1448059D01*
X3206050Y1490941D02*
X3236638Y1490941D01*
X3221344D02*
X3221344Y1582706D01*
X3206050D02*
X3236638Y1582706D01*
X3261950Y1521529D02*
X3261950Y1552118D01*
X3269597Y1567412D01*
X3277244Y1575059D01*
X3292538Y1582706D01*
X3307832D01*
X3323126Y1575059D01*
X3330774Y1567412D01*
X3338421Y1552118D01*
Y1521529D01*
X3330774Y1506235D01*
X3323126Y1498588D01*
X3307832Y1490941D01*
X3292538D01*
X3277244Y1498588D01*
X3269597Y1506235D01*
X3261950Y1521529D01*
X3382544Y1490941D02*
X3413132Y1490941D01*
X3397838D02*
X3397838Y1582706D01*
X3382544Y1567412D01*
X3516826Y1490941D02*
X3455650Y1490941D01*
X3509179Y1544471D01*
X3516826Y1559765D01*
X3509179Y1575059D01*
X3493885Y1582706D01*
X3470944D01*
X3455650Y1575059D01*
X3278200Y1617941D02*
X3278200Y1709706D01*
X3331729D01*
X3347024Y1702059D01*
X3354671Y1686765D01*
X3347024Y1671471D01*
X3331729Y1663824D01*
X3278200D01*
X3331729D02*
X3354671Y1617941D01*
X3391147Y1625588D02*
X3406441Y1617941D01*
X3421735D01*
X3437029Y1625588D01*
X3444676Y1640882D01*
X3437029Y1656176D01*
X3421735Y1663824D01*
X3406441D01*
X3421735D02*
X3437029Y1671471D01*
X3444676Y1686765D01*
X3437029Y1702059D01*
X3421735Y1709706D01*
X3406441D01*
X3391147Y1702059D01*
X3570435Y538441D02*
X3570435Y630206D01*
X3532200D02*
X3608671Y630206D01*
X3652794Y538441D02*
X3683382Y538441D01*
X3668088D02*
X3668088Y630206D01*
X3652794Y614912D01*
X3901190Y757246D02*
X3908837Y749599D01*
X3916484Y734304D01*
Y711363D01*
X3908837Y696069D01*
X3901190Y688422D01*
X3885896Y680775D01*
X3855307D01*
X3840013Y688422D01*
X3832366Y696069D01*
X3824719Y711363D01*
Y734304D01*
X3832366Y749599D01*
X3840013Y757246D01*
X3916484Y801369D02*
X3916484Y831957D01*
Y816663D02*
X3824719Y816663D01*
X3840013Y801369D01*
X3851984Y2969175D02*
X3760219Y2969175D01*
Y3022704D01*
X3767866Y3037999D01*
X3783160Y3045646D01*
X3798454Y3037999D01*
X3806101Y3022704D01*
Y2969175D01*
Y3022704D02*
X3851984Y3045646D01*
X3829043Y3074475D02*
X3844337Y3082122D01*
X3851984Y3097416D01*
Y3128004D01*
X3844337Y3143299D01*
X3829043Y3150946D01*
X3813749Y3143299D01*
X3806101Y3128004D01*
Y3097416D01*
X3798454Y3082122D01*
X3783160Y3074475D01*
X3767866Y3082122D01*
X3760219Y3097416D01*
Y3128004D01*
X3767866Y3143299D01*
X3783160Y3150946D01*
X3851984Y3218010D02*
X3760219Y3218010D01*
Y3179775D02*
X3760219Y3256246D01*
X5284975Y281441D02*
X5361446Y373206D01*
X5284975D02*
X5361446Y281441D01*
X5451451D02*
X5390275Y281441D01*
X5443804Y334971D01*
X5451451Y350265D01*
X5443804Y365559D01*
X5428510Y373206D01*
X5405569D01*
X5390275Y365559D01*
X5345750Y789441D02*
X5376338Y789441D01*
X5361044D02*
X5361044Y881206D01*
X5345750D02*
X5376338Y881206D01*
X5478121Y804735D02*
X5470474Y797088D01*
X5455179Y789441D01*
X5432238D01*
X5416944Y797088D01*
X5409297Y804735D01*
X5401650Y820029D01*
Y850618D01*
X5409297Y865912D01*
X5416944Y873559D01*
X5432238Y881206D01*
X5455179D01*
X5470474Y873559D01*
X5478121Y865912D01*
X5568126Y789441D02*
X5506950Y789441D01*
X5560479Y842971D01*
X5568126Y858265D01*
X5560479Y873559D01*
X5545185Y881206D01*
X5522244D01*
X5506950Y873559D01*
X5629984Y2865000D02*
X5538219Y2865000D01*
Y2918529D01*
X5545866Y2933824D01*
X5561160Y2941471D01*
X5576454Y2933824D01*
X5584101Y2918529D01*
Y2865000D01*
X5629984Y2970300D02*
X5538219Y2970300D01*
Y3023829D01*
X5545866Y3039124D01*
X5561160Y3046771D01*
X5576454Y3039124D01*
X5584101Y3023829D01*
Y2970300D01*
Y3023829D02*
X5629984Y3046771D01*
X5599396Y3075600D02*
X5568807Y3075600D01*
X5553513Y3083247D01*
X5545866Y3090894D01*
X5538219Y3106188D01*
Y3121482D01*
X5545866Y3136776D01*
X5553513Y3144424D01*
X5568807Y3152071D01*
X5599396D01*
X5614690Y3144424D01*
X5622337Y3136776D01*
X5629984Y3121482D01*
Y3106188D01*
X5622337Y3090894D01*
X5614690Y3083247D01*
X5599396Y3075600D01*
X5591749Y3234429D02*
X5591749Y3257371D01*
X5599396D01*
X5614690Y3249724D01*
X5622337Y3242076D01*
X5629984Y3226782D01*
Y3211488D01*
X5622337Y3196194D01*
X5614690Y3188547D01*
X5599396Y3180900D01*
X5568807D01*
X5553513Y3188547D01*
X5545866Y3196194D01*
X5538219Y3211488D01*
Y3226782D01*
X5545866Y3242076D01*
X5553513Y3249724D01*
X5568807Y3257371D01*
X5756984Y807775D02*
X5665219Y807775D01*
Y861304D01*
X5672866Y876599D01*
X5688160Y884246D01*
X5703454Y876599D01*
X5711101Y861304D01*
Y807775D01*
Y861304D02*
X5756984Y884246D01*
X5734043Y913075D02*
X5718749Y920722D01*
X5711101Y936016D01*
Y951310D01*
X5718749Y966604D01*
X5734043Y974251D01*
X5749337Y966604D01*
X5756984Y951310D01*
Y936016D01*
X5749337Y920722D01*
X5734043Y913075D01*
X5711101D01*
X5688160Y920722D01*
X5672866Y936016D01*
X5665219Y951310D01*
X5756984Y2176825D02*
X5756984Y2207413D01*
Y2192119D02*
X5665219Y2192119D01*
Y2176825D02*
X5665219Y2207413D01*
X5726396Y2232725D02*
X5695807Y2232725D01*
X5680513Y2240372D01*
X5672866Y2248019D01*
X5665219Y2263313D01*
Y2278607D01*
X5672866Y2293901D01*
X5680513Y2301549D01*
X5695807Y2309196D01*
X5726396D01*
X5741690Y2301549D01*
X5749337Y2293901D01*
X5756984Y2278607D01*
Y2263313D01*
X5749337Y2248019D01*
X5741690Y2240372D01*
X5726396Y2232725D01*
X5749337Y2338025D02*
X5756984Y2353319D01*
Y2376260D01*
X5749337Y2391554D01*
X5734043Y2399201D01*
X5726396D01*
X5711101Y2391554D01*
X5703454Y2376260D01*
Y2338025D01*
X5665219D01*
Y2399201D01*
X5910114Y2805885D02*
X5879526Y2858865D01*
X5921310Y2847669D02*
X5868329Y2817080D01*
X6072847Y2589897D02*
X5993376Y2544014D01*
X6012493Y2510902D02*
X5974258Y2577128D01*
X6039314Y2647977D02*
X5955745Y2670368D01*
X6008726Y2700957D02*
X5986333Y2617388D01*
X5947484Y1188775D02*
X5855719Y1188775D01*
Y1242304D01*
X5863366Y1257599D01*
X5878660Y1265246D01*
X5893954Y1257599D01*
X5901601Y1242304D01*
Y1188775D01*
Y1242304D02*
X5947484Y1265246D01*
X5939837Y1294075D02*
X5947484Y1309369D01*
Y1332310D01*
X5939837Y1347604D01*
X5924543Y1355251D01*
X5916896D01*
X5901601Y1347604D01*
X5893954Y1332310D01*
Y1294075D01*
X5855719D01*
Y1355251D01*
X5881700Y1744941D02*
X5881700Y1836706D01*
X5935229D01*
X5950524Y1829059D01*
X5958171Y1813765D01*
X5950524Y1798471D01*
X5935229Y1790824D01*
X5881700D01*
X5935229D02*
X5958171Y1744941D01*
X6025235D02*
X6025235Y1836706D01*
X5987000Y1775529D01*
X6048176D01*
X5853750Y1871941D02*
X5884338Y1871941D01*
X5869044D02*
X5869044Y1963706D01*
X5853750D02*
X5884338Y1963706D01*
X5909650Y1902529D02*
X5909650Y1933118D01*
X5917297Y1948412D01*
X5924944Y1956059D01*
X5940238Y1963706D01*
X5955532D01*
X5970826Y1956059D01*
X5978474Y1948412D01*
X5986121Y1933118D01*
Y1902529D01*
X5978474Y1887235D01*
X5970826Y1879588D01*
X5955532Y1871941D01*
X5940238D01*
X5924944Y1879588D01*
X5917297Y1887235D01*
X5909650Y1902529D01*
X6053185Y1871941D02*
X6053185Y1963706D01*
X6014950Y1902529D01*
X6076126D01*
X6220997Y2337989D02*
X6141526Y2292107D01*
X6114762Y2338464D01*
X6113737Y2355534D01*
X6123158Y2369803D01*
X6140227Y2370828D01*
X6154497Y2361405D01*
X6181261Y2315048D01*
X6154497Y2361405D02*
X6182762Y2404215D01*
X6168347Y2429182D02*
X6084778Y2451573D01*
X6137759Y2482162D02*
X6115366Y2398593D01*
X5842300Y789441D02*
X5842300Y881206D01*
X5918771D01*
X5903476Y835324D02*
X5842300Y835324D01*
X5947600Y881206D02*
X5947600Y789441D01*
X6024071D01*
X6052900D02*
X6091135Y881206D01*
X6129371Y789441D01*
X6068194Y827676D02*
X6114076Y827676D01*
X6158200Y812382D02*
X6165847Y797088D01*
X6181141Y789441D01*
X6211729D01*
X6227024Y797088D01*
X6234671Y812382D01*
X6227024Y827676D01*
X6211729Y835324D01*
X6181141D01*
X6165847Y842971D01*
X6158200Y858265D01*
X6165847Y873559D01*
X6181141Y881206D01*
X6211729D01*
X6227024Y873559D01*
X6234671Y858265D01*
X6263500Y789441D02*
X6263500Y881206D01*
Y835324D02*
X6339971Y835324D01*
Y789441D02*
X6339971Y881206D01*
X6268054Y2184711D02*
X6256583Y2204579D01*
X6263206Y2208403D01*
X6280274Y2209427D01*
X6290721Y2206627D01*
X6304990Y2197206D01*
X6312637Y2183961D01*
X6313662Y2166892D01*
X6310863Y2156446D01*
X6301441Y2142177D01*
X6274950Y2126882D01*
X6257882Y2125858D01*
X6247436Y2128657D01*
X6233166Y2138078D01*
X6225519Y2151323D01*
X6224495Y2168392D01*
X6227293Y2178839D01*
X6236715Y2193108D01*
D02*
D107*
X2503601Y2702570D02*
X2503601Y2762335D01*
Y2732452D02*
X2324307Y2732452D01*
Y2702570D02*
X2324307Y2762335D01*
X2503601Y2811790D02*
X2324307Y2811790D01*
X2503601Y2961202D01*
X2324307D01*
X2443837Y3017530D02*
X2443837Y3137059D01*
X2503601Y3077295D02*
X2384072Y3077295D01*
X2443837Y1126500D02*
X2384072Y1126500D01*
X2354190Y1141441D01*
X2339249Y1156382D01*
X2324307Y1186265D01*
Y1216147D01*
X2339249Y1246029D01*
X2354190Y1260971D01*
X2384072Y1275912D01*
X2443837D01*
X2473719Y1260971D01*
X2488660Y1246029D01*
X2503601Y1216147D01*
Y1186265D01*
X2488660Y1156382D01*
X2473719Y1141441D01*
X2443837Y1126500D01*
X2324307Y1332240D02*
X2458778Y1332240D01*
X2488660Y1347181D01*
X2503601Y1377064D01*
Y1436828D01*
X2488660Y1466711D01*
X2458778Y1481652D01*
X2324307D01*
X2503601Y1612686D02*
X2324307Y1612686D01*
Y1537980D02*
X2324307Y1687392D01*
X2443837Y1743720D02*
X2443837Y1863249D01*
X2503601Y1803485D02*
X2384072Y1803485D01*
X2757601Y2702570D02*
X2757601Y2762335D01*
Y2732452D02*
X2578307Y2732452D01*
Y2702570D02*
X2578307Y2762335D01*
X2757601Y2811790D02*
X2578307Y2811790D01*
X2757601Y2961202D01*
X2578307D01*
X2697837Y3017530D02*
X2697837Y3137059D01*
Y1126500D02*
X2638072Y1126500D01*
X2608190Y1141441D01*
X2593249Y1156382D01*
X2578307Y1186265D01*
Y1216147D01*
X2593249Y1246029D01*
X2608190Y1260971D01*
X2638072Y1275912D01*
X2697837D01*
X2727719Y1260971D01*
X2742660Y1246029D01*
X2757601Y1216147D01*
Y1186265D01*
X2742660Y1156382D01*
X2727719Y1141441D01*
X2697837Y1126500D01*
X2578307Y1332240D02*
X2712778Y1332240D01*
X2742660Y1347181D01*
X2757601Y1377064D01*
Y1436828D01*
X2742660Y1466711D01*
X2712778Y1481652D01*
X2578307D01*
X2757601Y1612686D02*
X2578307Y1612686D01*
Y1537980D02*
X2578307Y1687392D01*
X2697837Y1743720D02*
X2697837Y1863249D01*
X0Y0D02*
M02*
