G04 GENERATED BY PULSONIX 12.5 GERBER.DLL 9449*
G04 #@! TF.GenerationSoftware,Pulsonix,Pulsonix,12.5.9449*
G04 #@! TF.CreationDate,2025-04-26T21:18:15--1:00*
G04 #@! TF.Part,Single*
%FSLAX35Y35*%
%LPD*%
%MOMM*%
G04 #@! TF.FileFunction,Soldermask,Bot*
G04 #@! TF.FilePolarity,Negative*
G04 #@! TA.AperFunction,ViaPad*
%ADD107C,0.95400*%
G04 #@! TA.AperFunction,ComponentPad*
%ADD108O,2.05400X4.45400*%
%ADD109O,4.45400X2.05400*%
%ADD110C,1.95400*%
%ADD111C,1.77800*%
%ADD112C,1.45400*%
%AMT113*0 Rectangle Pad at angle 30*21,1,2.15900,2.15900,0,0,30*%
%ADD113T113*%
%AMT114*0 Octagon pad*4,1,8,-0.15252,1.15844,-0.92698,0.71130,-1.15844,-0.15252,-0.71130,-0.92698,0.15252,-1.15844,0.92698,-0.71130,1.15844,0.15252,0.71130,0.92698,-0.15252,1.15844,0*%
%ADD114T114*%
%ADD115R,2.15900X2.15900*%
%AMT116*0 Octagon pad*4,1,8,0.44714,1.07950,-0.44714,1.07950,-1.07950,0.44714,-1.07950,-0.44714,-0.44714,-1.07950,0.44714,-1.07950,1.07950,-0.44714,1.07950,0.44714,0.44714,1.07950,0*%
%ADD116T116*%
G04 #@! TD.AperFunction*
X0Y0D02*
D02*
D107*
X530925Y1358500D03*
Y2057000D03*
X1038925Y342500D03*
X1165925Y3200000D03*
X1483425D03*
X2308925Y2247500D03*
X2753425D03*
X3197925D03*
X3414550Y1849000D03*
X3509800Y1118750D03*
X4721925Y1422000D03*
Y1930000D03*
Y2438000D03*
X5547425Y660000D03*
X5674425Y3073000D03*
X5737925Y660000D03*
D02*
D108*
X971925Y1722000D03*
X1551925D03*
D02*
D109*
X1251925Y1242000D03*
D02*
D110*
X640984Y2357000D03*
X1520866Y2865000D03*
X1930925Y1259500D03*
Y3109500D03*
X2184925Y1259500D03*
Y3109500D03*
X2946925Y1259500D03*
Y3109500D03*
X3200925Y1259500D03*
Y3109500D03*
D02*
D111*
X2858925Y388500D03*
X2985925Y833000D03*
X3239925D03*
X3493925D03*
X3747925Y388500D03*
D02*
D112*
X1588925D03*
Y896500D03*
X2350925Y388500D03*
Y896500D03*
X2604925Y388500D03*
Y896500D03*
D02*
D113*
X5716425Y2738000D03*
D02*
D114*
X5843425Y2518030D03*
X5970425Y2298059D03*
X6097425Y2078089D03*
D02*
D115*
X890425Y1087000D03*
X5335425Y515500D03*
D02*
D116*
X636425Y1087000D03*
X4065425Y515500D03*
X4319425D03*
X4573425D03*
X4827425D03*
X5081425D03*
X0Y0D02*
M02*
