M48
FMAT,1
METRIC
T01C000.00000
T02C000.40000
T03C000.80000
T04C000.81280
T05C001.00000
T06C001.10000
T07C003.10000
%
G81
M71
T02
X530925Y1358500
X530925Y2057000
X1038925Y342500
X1165925Y3200000
X1483425Y3200000
X2308925Y2247500
X2753425Y2247500
X3197925Y2247500
X3414550Y1849000
X3509800Y1118750
X4721925Y1422000
X4721925Y1930000
X4721925Y2438000
X5547425Y660000
X5674425Y3073000
X5737925Y660000
T03
X1588925Y388500
X1588925Y896500
X2350925Y388500
X2350925Y896500
X2604925Y388500
X2604925Y896500
T04
X2858925Y388500
X2985925Y833000
X3239925Y833000
X3493925Y833000
X3747925Y388500
T05
X640984Y2357000
X1520866Y2865000
X1930925Y1259500
X1930925Y3109500
X2184925Y1259500
X2184925Y3109500
X2946925Y1259500
X2946925Y3109500
X3200925Y1259500
X3200925Y3109500
T06
X636425Y1087000
X890425Y1087000
X4065425Y515500
X4319425Y515500
X4573425Y515500
X4827425Y515500
X5081425Y515500
X5335425Y515500
X5716425Y2738000
X5843425Y2518030
X5970425Y2298059
X6097425Y2078089
T07
X703925Y515500
X703925Y3015500
X6103925Y515500
X6103925Y3015500
T01
G00X921925Y1832000
M15
G01X921925Y1612000
G03X971925Y1562000A50000
X1021925Y1612000A50000
G01X1021925Y1832000
G03X971925Y1882000A50000
X921925Y1832000A50000
M17
G00X1141925Y1192000
M15
G01X1361925Y1192000
G03X1411925Y1242000A50000
X1361925Y1292000A50000
G01X1141925Y1292000
G03X1091925Y1242000A50000
X1141925Y1192000A50000
M17
G00X1501925Y1832000
M15
G01X1501925Y1612000
G03X1551925Y1562000A50000
X1601925Y1612000A50000
G01X1601925Y1832000
G03X1551925Y1882000A50000
X1501925Y1832000A50000
M17
M30
