G04 GENERATED BY PULSONIX 12.5 GERBER.DLL 9449*
G04 #@! TF.GenerationSoftware,Pulsonix,Pulsonix,12.5.9449*
G04 #@! TF.CreationDate,2025-04-26T21:18:15--1:00*
G04 #@! TF.Part,Single*
%FSLAX35Y35*%
%LPD*%
%MOMM*%
G04 #@! TF.FileFunction,Legend,Bot*
G04 #@! TF.FilePolarity,Positive*
G04 #@! TA.AperFunction,Profile*
%ADD10C,0.30000*%
G04 #@! TD.AperFunction*
%ADD12C,0.00001*%
%ADD107C,0.40000*%
%ADD108C,0.25000*%
G04 #@! TD.AperFunction*
X0Y0D02*
D02*
D10*
X703925Y3315500D02*
X6103925D01*
G75*
G02*
X6403925Y3015500I0J-300000D01*
G01*
Y515500D01*
G75*
G02*
X6103925Y215500I-300000J0D01*
G01*
X703925D01*
G75*
G02*
X403925Y515500I0J300000D01*
G01*
Y3015500D01*
G75*
G02*
X703925Y3315500I300000J0D01*
G01*
D02*
D12*
X5245548Y1038740D02*
Y802168D01*
X5234562D01*
X5225040Y800703D01*
X5218448Y799238D01*
X5214054Y797041D01*
X5209659Y792646D01*
X5206730Y787520D01*
X5204532Y781660D01*
X5203800Y775068D01*
X5204532Y767744D01*
X5205997Y761152D01*
X5209659Y756025D01*
X5213321Y752363D01*
X5216251Y750898D01*
X5219181Y749434D01*
X5222843Y747969D01*
X5227237Y747236D01*
X5233097Y746504D01*
X5238956Y745771D01*
X5246280D01*
X5253605D01*
X5311466D01*
X5323185D01*
X5332706Y747236D01*
X5340030Y749434D01*
X5345890Y752363D01*
X5349552Y756025D01*
X5352482Y761152D01*
X5354679Y767012D01*
Y774336D01*
X5353946Y782393D01*
X5351749Y788252D01*
X5348820Y794111D01*
X5343693Y798506D01*
X5337833Y800703D01*
X5330509Y802168D01*
X5321720Y802900D01*
X5311466Y803633D01*
X5307071D01*
Y879805D01*
X5438175D01*
Y803633D01*
X5427921D01*
X5419864Y802900D01*
X5412540Y802168D01*
X5405948Y799971D01*
X5400821Y797041D01*
X5395695Y792646D01*
X5392765Y787520D01*
X5390568Y781660D01*
X5389835Y775068D01*
X5390568Y767744D01*
X5392032Y761152D01*
X5394962Y756025D01*
X5398624Y752363D01*
X5403751Y749434D01*
X5411075Y747236D01*
X5419864Y745771D01*
X5430118D01*
X5504093D01*
X5513614D01*
X5522404Y747236D01*
X5528995Y750166D01*
X5533390Y753096D01*
X5537052Y757490D01*
X5539249Y762617D01*
X5540714Y768477D01*
X5541446Y775068D01*
X5540714Y782393D01*
X5538517Y788252D01*
X5535587Y793379D01*
X5531925Y797041D01*
X5526798Y799238D01*
X5520206Y800703D01*
X5510685Y802168D01*
X5499698D01*
Y1038740D01*
X5510685Y1039473D01*
X5520206Y1040937D01*
X5526798Y1043135D01*
X5531925Y1045332D01*
X5535587Y1048994D01*
X5538517Y1054121D01*
X5540714Y1060713D01*
X5541446Y1068037D01*
X5540714Y1074629D01*
X5539249Y1080488D01*
X5537052Y1084883D01*
X5533390Y1089277D01*
X5528263Y1092939D01*
X5521671Y1095137D01*
X5512882Y1096602D01*
X5502628D01*
X5433048D01*
X5421329D01*
X5412540Y1095137D01*
X5405216Y1093672D01*
X5400089Y1090742D01*
X5395695Y1087080D01*
X5392032Y1081953D01*
X5390568Y1075361D01*
X5389835Y1068037D01*
X5390568Y1060713D01*
X5392765Y1054121D01*
X5396427Y1048994D01*
X5401554Y1044600D01*
X5407413Y1042402D01*
X5414737Y1040205D01*
X5424259Y1039473D01*
X5434513Y1038740D01*
X5438175D01*
Y935469D01*
X5307071D01*
Y1038740D01*
X5317325D01*
X5326114Y1039473D01*
X5333439Y1040937D01*
X5339298Y1042402D01*
X5344425Y1045332D01*
X5349552Y1049727D01*
X5352482Y1054854D01*
X5353946Y1060713D01*
X5354679Y1068037D01*
X5353946Y1075361D01*
X5352482Y1081953D01*
X5349552Y1087080D01*
X5344425Y1090742D01*
X5339298Y1093672D01*
X5331974Y1095137D01*
X5321720Y1096602D01*
X5308536D01*
X5241886D01*
X5231632D01*
X5223575Y1095137D01*
X5216984Y1092939D01*
X5211857Y1089277D01*
X5208195Y1084883D01*
X5205997Y1080488D01*
X5204532Y1074629D01*
X5203800Y1068037D01*
X5204532Y1060713D01*
X5205997Y1054854D01*
X5209659Y1049727D01*
X5213321Y1045332D01*
X5218448Y1043135D01*
X5225040Y1040937D01*
X5234562Y1039473D01*
X5245548Y1038740D01*
G36*
X5245548Y1038740D02*
Y802168D01*
X5234562D01*
X5225040Y800703D01*
X5218448Y799238D01*
X5214054Y797041D01*
X5209659Y792646D01*
X5206730Y787520D01*
X5204532Y781660D01*
X5203800Y775068D01*
X5204532Y767744D01*
X5205997Y761152D01*
X5209659Y756025D01*
X5213321Y752363D01*
X5216251Y750898D01*
X5219181Y749434D01*
X5222843Y747969D01*
X5227237Y747236D01*
X5233097Y746504D01*
X5238956Y745771D01*
X5246280D01*
X5253605D01*
X5311466D01*
X5323185D01*
X5332706Y747236D01*
X5340030Y749434D01*
X5345890Y752363D01*
X5349552Y756025D01*
X5352482Y761152D01*
X5354679Y767012D01*
Y774336D01*
X5353946Y782393D01*
X5351749Y788252D01*
X5348820Y794111D01*
X5343693Y798506D01*
X5337833Y800703D01*
X5330509Y802168D01*
X5321720Y802900D01*
X5311466Y803633D01*
X5307071D01*
Y879805D01*
X5438175D01*
Y803633D01*
X5427921D01*
X5419864Y802900D01*
X5412540Y802168D01*
X5405948Y799971D01*
X5400821Y797041D01*
X5395695Y792646D01*
X5392765Y787520D01*
X5390568Y781660D01*
X5389835Y775068D01*
X5390568Y767744D01*
X5392032Y761152D01*
X5394962Y756025D01*
X5398624Y752363D01*
X5403751Y749434D01*
X5411075Y747236D01*
X5419864Y745771D01*
X5430118D01*
X5504093D01*
X5513614D01*
X5522404Y747236D01*
X5528995Y750166D01*
X5533390Y753096D01*
X5537052Y757490D01*
X5539249Y762617D01*
X5540714Y768477D01*
X5541446Y775068D01*
X5540714Y782393D01*
X5538517Y788252D01*
X5535587Y793379D01*
X5531925Y797041D01*
X5526798Y799238D01*
X5520206Y800703D01*
X5510685Y802168D01*
X5499698D01*
Y1038740D01*
X5510685Y1039473D01*
X5520206Y1040937D01*
X5526798Y1043135D01*
X5531925Y1045332D01*
X5535587Y1048994D01*
X5538517Y1054121D01*
X5540714Y1060713D01*
X5541446Y1068037D01*
X5540714Y1074629D01*
X5539249Y1080488D01*
X5537052Y1084883D01*
X5533390Y1089277D01*
X5528263Y1092939D01*
X5521671Y1095137D01*
X5512882Y1096602D01*
X5502628D01*
X5433048D01*
X5421329D01*
X5412540Y1095137D01*
X5405216Y1093672D01*
X5400089Y1090742D01*
X5395695Y1087080D01*
X5392032Y1081953D01*
X5390568Y1075361D01*
X5389835Y1068037D01*
X5390568Y1060713D01*
X5392765Y1054121D01*
X5396427Y1048994D01*
X5401554Y1044600D01*
X5407413Y1042402D01*
X5414737Y1040205D01*
X5424259Y1039473D01*
X5434513Y1038740D01*
X5438175D01*
Y935469D01*
X5307071D01*
Y1038740D01*
X5317325D01*
X5326114Y1039473D01*
X5333439Y1040937D01*
X5339298Y1042402D01*
X5344425Y1045332D01*
X5349552Y1049727D01*
X5352482Y1054854D01*
X5353946Y1060713D01*
X5354679Y1068037D01*
X5353946Y1075361D01*
X5352482Y1081953D01*
X5349552Y1087080D01*
X5344425Y1090742D01*
X5339298Y1093672D01*
X5331974Y1095137D01*
X5321720Y1096602D01*
X5308536D01*
X5241886D01*
X5231632D01*
X5223575Y1095137D01*
X5216984Y1092939D01*
X5211857Y1089277D01*
X5208195Y1084883D01*
X5205997Y1080488D01*
X5204532Y1074629D01*
X5203800Y1068037D01*
X5204532Y1060713D01*
X5205997Y1054854D01*
X5209659Y1049727D01*
X5213321Y1045332D01*
X5218448Y1043135D01*
X5225040Y1040937D01*
X5234562Y1039473D01*
X5245548Y1038740D01*
G37*
X4874210Y778730D02*
X4874943Y772139D01*
X4876407Y766279D01*
X4879337Y761885D01*
X4882999Y757490D01*
X4888126Y753828D01*
X4893253Y751631D01*
X4899112Y750166D01*
X4906437D01*
X4949650D01*
X4954777D01*
X4959904Y751631D01*
X4964298Y753828D01*
X4968693Y756025D01*
X4974552Y764814D01*
X4978214Y776533D01*
X4987003Y769941D01*
X4997257Y764082D01*
X5006779Y758955D01*
X5017765Y754561D01*
X5031681Y749434D01*
X5045597Y745771D01*
X5060245Y743574D01*
X5075626Y742842D01*
X5086612Y743574D01*
X5096866Y744307D01*
X5106388Y746504D01*
X5115909Y749434D01*
X5124698Y753096D01*
X5133487Y757490D01*
X5140812Y762617D01*
X5148136Y768477D01*
X5154728Y775068D01*
X5160587Y782393D01*
X5165714Y789717D01*
X5169376Y797773D01*
X5172306Y806562D01*
X5174503Y815352D01*
X5175968Y824873D01*
X5176700Y834395D01*
X5175968Y846113D01*
X5174503Y857832D01*
X5171573Y868086D01*
X5167179Y877607D01*
X5162052Y887129D01*
X5155460Y895186D01*
X5147404Y903242D01*
X5138614Y909834D01*
X5129093Y915693D01*
X5118839Y921553D01*
X5107853Y925947D01*
X5096134Y929609D01*
X5083683Y931807D01*
X5069767Y934004D01*
X5055118Y935469D01*
X5039737D01*
X5022892D01*
X5006046Y934004D01*
X4982609Y930342D01*
X4984073Y939863D01*
X4987003Y947920D01*
X4990665Y955244D01*
X4995792Y961104D01*
X5002384Y966230D01*
X5011905Y970625D01*
X5022892Y972822D01*
X5036075Y973555D01*
X5045597Y972822D01*
X5056583Y970625D01*
X5068302Y967695D01*
X5080753Y962568D01*
X5093937Y957441D01*
X5104191Y953779D01*
X5112980Y951582D01*
X5119571Y950850D01*
X5125431Y951582D01*
X5130558Y953047D01*
X5135685Y955977D01*
X5139347Y959639D01*
X5143009Y964766D01*
X5145206Y969893D01*
X5146671Y976484D01*
X5147404Y983076D01*
X5146671Y988203D01*
X5145206Y994062D01*
X5142277Y998457D01*
X5137882Y1003584D01*
X5132755Y1007979D01*
X5126163Y1011641D01*
X5118839Y1015303D01*
X5110050Y1018965D01*
X5093204Y1024092D01*
X5073429Y1027754D01*
X5052189Y1029951D01*
X5028019Y1030684D01*
X5015568Y1029951D01*
X5003849Y1028486D01*
X4992862Y1027021D01*
X4982609Y1023359D01*
X4973087Y1019697D01*
X4964298Y1015303D01*
X4956241Y1009443D01*
X4948917Y1003584D01*
X4942325Y996260D01*
X4936466Y988203D01*
X4932071Y979414D01*
X4928409Y969893D01*
X4924747Y959639D01*
X4923282Y948652D01*
X4921818Y936934D01*
X4921085Y923750D01*
Y807295D01*
X4916691D01*
X4906437Y806562D01*
X4897648Y805830D01*
X4891056Y804365D01*
X4885196Y802168D01*
X4880802Y797773D01*
X4877140Y792646D01*
X4874943Y786787D01*
X4874210Y778730D01*
X5004581Y879805D02*
X5017765Y881270D01*
X5031681Y882002D01*
X5050724Y880537D01*
X5066837Y878340D01*
X5081486Y874678D01*
X5093937Y868818D01*
X5102726Y862227D01*
X5108585Y854902D01*
X5112980Y846846D01*
X5113712Y838057D01*
X5112980Y830732D01*
X5110782Y824873D01*
X5107120Y819746D01*
X5101993Y814619D01*
X5095402Y809492D01*
X5087345Y806562D01*
X5078556Y804365D01*
X5069034Y803633D01*
X5052921Y804365D01*
X5037540Y808027D01*
X5022159Y813154D01*
X5008243Y821211D01*
X5002384Y824873D01*
X4997257Y828535D01*
X4992862Y832930D01*
X4989200Y836592D01*
X4986271Y840254D01*
X4984073Y843916D01*
X4983341Y847578D01*
X4982609Y851240D01*
Y875410D01*
X5004581Y879805D01*
X4921085Y923750D02*
G36*
X4921085Y923750D02*
Y842817D01*
X4984733D01*
X4984073Y843916D01*
X4983341Y847578D01*
X4982609Y851240D01*
Y875410D01*
X5004581Y879805D01*
X5017765Y881270D01*
X5031681Y882002D01*
X5050724Y880537D01*
X5066837Y878340D01*
X5081486Y874678D01*
X5093937Y868818D01*
X5102726Y862227D01*
X5108585Y854902D01*
X5112980Y846846D01*
X5113316Y842817D01*
X5176174D01*
X5175968Y846113D01*
X5174503Y857832D01*
X5171573Y868086D01*
X5167179Y877607D01*
X5162052Y887129D01*
X5155460Y895186D01*
X5147404Y903242D01*
X5138614Y909834D01*
X5129093Y915693D01*
X5118839Y921553D01*
X5107853Y925947D01*
X5096134Y929609D01*
X5083683Y931807D01*
X5069767Y934004D01*
X5055118Y935469D01*
X5039737D01*
X5022892D01*
X5006046Y934004D01*
X4982609Y930342D01*
X4984073Y939863D01*
X4987003Y947920D01*
X4990665Y955244D01*
X4995792Y961104D01*
X5002384Y966230D01*
X5011905Y970625D01*
X5022892Y972822D01*
X5036075Y973555D01*
X5045597Y972822D01*
X5056583Y970625D01*
X5068302Y967695D01*
X5080753Y962568D01*
X5093937Y957441D01*
X5104191Y953779D01*
X5112980Y951582D01*
X5119571Y950850D01*
X5125431Y951582D01*
X5130558Y953047D01*
X5135685Y955977D01*
X5139347Y959639D01*
X5143009Y964766D01*
X5145206Y969893D01*
X5146671Y976484D01*
X5147404Y983076D01*
X5146671Y988203D01*
X5145206Y994062D01*
X5142277Y998457D01*
X5137882Y1003584D01*
X5132755Y1007979D01*
X5126163Y1011641D01*
X5118839Y1015303D01*
X5110050Y1018965D01*
X5093204Y1024092D01*
X5073429Y1027754D01*
X5052189Y1029951D01*
X5028019Y1030684D01*
X5015568Y1029951D01*
X5003849Y1028486D01*
X4992862Y1027021D01*
X4982609Y1023359D01*
X4973087Y1019697D01*
X4964298Y1015303D01*
X4956241Y1009443D01*
X4948917Y1003584D01*
X4942325Y996260D01*
X4936466Y988203D01*
X4932071Y979414D01*
X4928409Y969893D01*
X4924747Y959639D01*
X4923282Y948652D01*
X4921818Y936934D01*
X4921085Y923750D01*
G37*
X4874210Y778730D02*
G36*
X4874210Y778730D02*
X4874943Y772139D01*
X4876407Y766279D01*
X4879337Y761885D01*
X4882999Y757490D01*
X4888126Y753828D01*
X4893253Y751631D01*
X4899112Y750166D01*
X4906437D01*
X4949650D01*
X4954777D01*
X4959904Y751631D01*
X4964298Y753828D01*
X4968693Y756025D01*
X4974552Y764814D01*
X4978214Y776533D01*
X4987003Y769941D01*
X4997257Y764082D01*
X5006779Y758955D01*
X5017765Y754561D01*
X5031681Y749434D01*
X5045597Y745771D01*
X5060245Y743574D01*
X5075626Y742842D01*
X5086612Y743574D01*
X5096866Y744307D01*
X5106388Y746504D01*
X5115909Y749434D01*
X5124698Y753096D01*
X5133487Y757490D01*
X5140812Y762617D01*
X5148136Y768477D01*
X5154728Y775068D01*
X5160587Y782393D01*
X5165714Y789717D01*
X5169376Y797773D01*
X5172306Y806562D01*
X5174503Y815352D01*
X5175968Y824873D01*
X5176700Y834395D01*
X5176174Y842817D01*
X5113316D01*
X5113712Y838057D01*
X5112980Y830732D01*
X5110782Y824873D01*
X5107120Y819746D01*
X5101993Y814619D01*
X5095402Y809492D01*
X5087345Y806562D01*
X5078556Y804365D01*
X5069034Y803633D01*
X5052921Y804365D01*
X5037540Y808027D01*
X5022159Y813154D01*
X5008243Y821211D01*
X5002384Y824873D01*
X4997257Y828535D01*
X4992862Y832930D01*
X4989200Y836592D01*
X4986271Y840254D01*
X4984733Y842817D01*
X4921085D01*
Y807295D01*
X4916691D01*
X4906437Y806562D01*
X4897648Y805830D01*
X4891056Y804365D01*
X4885196Y802168D01*
X4880802Y797773D01*
X4877140Y792646D01*
X4874943Y786787D01*
X4874210Y778730D01*
G37*
X4524845Y1068037D02*
X4525577Y1060713D01*
X4527775Y1054121D01*
X4530704Y1048994D01*
X4535099Y1044600D01*
X4540226Y1042402D01*
X4546818Y1040205D01*
X4555607Y1039473D01*
X4566593Y1038740D01*
X4592960D01*
Y870283D01*
X4593693Y854170D01*
X4595157Y839521D01*
X4597355Y825605D01*
X4600284Y812422D01*
X4604679Y800703D01*
X4609806Y790449D01*
X4615665Y780928D01*
X4622257Y772871D01*
X4630314Y765547D01*
X4639835Y759687D01*
X4649357Y753828D01*
X4661075Y749434D01*
X4672794Y746504D01*
X4686710Y743574D01*
X4700626Y742109D01*
X4716007D01*
X4729923D01*
X4743107Y743574D01*
X4755558Y745039D01*
X4768009Y747969D01*
X4779728Y750898D01*
X4792179Y756025D01*
X4804630Y761152D01*
X4817081Y767744D01*
X4822941Y770674D01*
X4827335Y774336D01*
X4830997Y777266D01*
X4833195Y780928D01*
X4834659Y785322D01*
X4836124Y790449D01*
X4836857Y797041D01*
Y804365D01*
Y869551D01*
Y880537D01*
X4835392Y888594D01*
X4833927Y895186D01*
X4830997Y899580D01*
X4827335Y903242D01*
X4822208Y906172D01*
X4817081Y907637D01*
X4811222Y908369D01*
X4801700Y906904D01*
X4794376Y903975D01*
X4787784Y898848D01*
X4784122Y891523D01*
X4782657Y887861D01*
X4781193Y883467D01*
Y880537D01*
X4780460Y876875D01*
Y873213D01*
Y868086D01*
Y865156D01*
X4779728Y849775D01*
X4777530Y835859D01*
X4774601Y827070D01*
X4769474Y819014D01*
X4764347Y812422D01*
X4757755Y805830D01*
X4748966Y801436D01*
X4740177Y797773D01*
X4729923Y796309D01*
X4718937Y795576D01*
X4702823Y796309D01*
X4689640Y799971D01*
X4678654Y805830D01*
X4669864Y813887D01*
X4666935Y819014D01*
X4663273Y824141D01*
X4661075Y831465D01*
X4658878Y838789D01*
X4657413Y847578D01*
X4655948Y856367D01*
X4655216Y866621D01*
Y877607D01*
Y1038740D01*
X4695499D01*
X4707218Y1039473D01*
X4716007Y1040205D01*
X4722599Y1042402D01*
X4727726Y1044600D01*
X4732120Y1048994D01*
X4735782Y1054121D01*
X4737247Y1060713D01*
X4737980Y1068037D01*
Y1074629D01*
X4736515Y1080488D01*
X4733585Y1084883D01*
X4730655Y1089277D01*
X4726261Y1092939D01*
X4721134Y1095137D01*
X4715275Y1096602D01*
X4708683D01*
X4553409D01*
X4546818D01*
X4540958Y1095137D01*
X4536564Y1092207D01*
X4532169Y1088545D01*
X4529239Y1084150D01*
X4527042Y1079756D01*
X4525577Y1073896D01*
X4524845Y1068037D01*
G36*
X4524845Y1068037D02*
X4525577Y1060713D01*
X4527775Y1054121D01*
X4530704Y1048994D01*
X4535099Y1044600D01*
X4540226Y1042402D01*
X4546818Y1040205D01*
X4555607Y1039473D01*
X4566593Y1038740D01*
X4592960D01*
Y870283D01*
X4593693Y854170D01*
X4595157Y839521D01*
X4597355Y825605D01*
X4600284Y812422D01*
X4604679Y800703D01*
X4609806Y790449D01*
X4615665Y780928D01*
X4622257Y772871D01*
X4630314Y765547D01*
X4639835Y759687D01*
X4649357Y753828D01*
X4661075Y749434D01*
X4672794Y746504D01*
X4686710Y743574D01*
X4700626Y742109D01*
X4716007D01*
X4729923D01*
X4743107Y743574D01*
X4755558Y745039D01*
X4768009Y747969D01*
X4779728Y750898D01*
X4792179Y756025D01*
X4804630Y761152D01*
X4817081Y767744D01*
X4822941Y770674D01*
X4827335Y774336D01*
X4830997Y777266D01*
X4833195Y780928D01*
X4834659Y785322D01*
X4836124Y790449D01*
X4836857Y797041D01*
Y804365D01*
Y869551D01*
Y880537D01*
X4835392Y888594D01*
X4833927Y895186D01*
X4830997Y899580D01*
X4827335Y903242D01*
X4822208Y906172D01*
X4817081Y907637D01*
X4811222Y908369D01*
X4801700Y906904D01*
X4794376Y903975D01*
X4787784Y898848D01*
X4784122Y891523D01*
X4782657Y887861D01*
X4781193Y883467D01*
Y880537D01*
X4780460Y876875D01*
Y873213D01*
Y868086D01*
Y865156D01*
X4779728Y849775D01*
X4777530Y835859D01*
X4774601Y827070D01*
X4769474Y819014D01*
X4764347Y812422D01*
X4757755Y805830D01*
X4748966Y801436D01*
X4740177Y797773D01*
X4729923Y796309D01*
X4718937Y795576D01*
X4702823Y796309D01*
X4689640Y799971D01*
X4678654Y805830D01*
X4669864Y813887D01*
X4666935Y819014D01*
X4663273Y824141D01*
X4661075Y831465D01*
X4658878Y838789D01*
X4657413Y847578D01*
X4655948Y856367D01*
X4655216Y866621D01*
Y877607D01*
Y1038740D01*
X4695499D01*
X4707218Y1039473D01*
X4716007Y1040205D01*
X4722599Y1042402D01*
X4727726Y1044600D01*
X4732120Y1048994D01*
X4735782Y1054121D01*
X4737247Y1060713D01*
X4737980Y1068037D01*
Y1074629D01*
X4736515Y1080488D01*
X4733585Y1084883D01*
X4730655Y1089277D01*
X4726261Y1092939D01*
X4721134Y1095137D01*
X4715275Y1096602D01*
X4708683D01*
X4553409D01*
X4546818D01*
X4540958Y1095137D01*
X4536564Y1092207D01*
X4532169Y1088545D01*
X4529239Y1084150D01*
X4527042Y1079756D01*
X4525577Y1073896D01*
X4524845Y1068037D01*
G37*
X4228214Y887129D02*
X4228946Y871748D01*
X4230411Y857100D01*
X4234073Y842451D01*
X4238468Y829268D01*
X4245060Y816816D01*
X4252384Y805098D01*
X4261173Y793379D01*
X4271427Y783125D01*
X4282413Y773604D01*
X4294132Y765547D01*
X4307316Y758955D01*
X4320499Y753096D01*
X4335148Y748701D01*
X4349796Y745771D01*
X4365909Y743574D01*
X4382755Y742842D01*
X4399601Y743574D01*
X4414982Y745771D01*
X4430362Y748701D01*
X4444279Y753096D01*
X4457462Y758955D01*
X4470646Y765547D01*
X4482364Y773604D01*
X4493351Y783125D01*
X4503605Y793379D01*
X4512394Y805098D01*
X4519718Y816816D01*
X4526310Y829268D01*
X4530704Y842451D01*
X4534366Y856367D01*
X4535831Y871016D01*
X4536564Y886396D01*
X4535831Y901777D01*
X4534366Y917158D01*
X4530704Y931074D01*
X4526310Y944258D01*
X4519718Y956709D01*
X4512394Y968428D01*
X4503605Y980146D01*
X4493351Y990400D01*
X4482364Y999922D01*
X4470646Y1007979D01*
X4457462Y1014570D01*
X4444279Y1020430D01*
X4430362Y1024824D01*
X4414982Y1027754D01*
X4398868Y1029951D01*
X4382755Y1030684D01*
X4365909Y1029951D01*
X4349796Y1027754D01*
X4335148Y1024824D01*
X4320499Y1020430D01*
X4307316Y1014570D01*
X4294132Y1007979D01*
X4282413Y999922D01*
X4271427Y990400D01*
X4261173Y980146D01*
X4252384Y968428D01*
X4245060Y956709D01*
X4238468Y944258D01*
X4234073Y931074D01*
X4230411Y917158D01*
X4228946Y902510D01*
X4228214Y887129D01*
X4469913D02*
X4469181Y877607D01*
X4468448Y868818D01*
X4466251Y860029D01*
X4464054Y851973D01*
X4460392Y844648D01*
X4455997Y837324D01*
X4450870Y830732D01*
X4445743Y824141D01*
X4439152Y818281D01*
X4432560Y813154D01*
X4425236Y809492D01*
X4417911Y805830D01*
X4409122Y802900D01*
X4401066Y801436D01*
X4391544Y799971D01*
X4382023D01*
X4373234D01*
X4363712Y801436D01*
X4354923Y802900D01*
X4346866Y805830D01*
X4339542Y809492D01*
X4332218Y813154D01*
X4325626Y818281D01*
X4319034Y824141D01*
X4313175Y830732D01*
X4308048Y837324D01*
X4303654Y844648D01*
X4300724Y851973D01*
X4297794Y860029D01*
X4295597Y868086D01*
X4294864Y877607D01*
X4294132Y886396D01*
X4294864Y895918D01*
X4295597Y904707D01*
X4297794Y913496D01*
X4300724Y921553D01*
X4303654Y928877D01*
X4308048Y936201D01*
X4313175Y943525D01*
X4319034Y949385D01*
X4325626Y955244D01*
X4332218Y960371D01*
X4339542Y964766D01*
X4346866Y968428D01*
X4354923Y970625D01*
X4363712Y972822D01*
X4373234Y973555D01*
X4382023Y974287D01*
X4391544Y973555D01*
X4401066Y972822D01*
X4409122Y970625D01*
X4417911Y968428D01*
X4425236Y964766D01*
X4432560Y960371D01*
X4439152Y955244D01*
X4445743Y949385D01*
X4450870Y943525D01*
X4455997Y936201D01*
X4460392Y929609D01*
X4464054Y921553D01*
X4466251Y913496D01*
X4468448Y905439D01*
X4469181Y896650D01*
X4469913Y887129D01*
X4228214D02*
G36*
X4228214Y887129D02*
X4294188D01*
X4294864Y895918D01*
X4295597Y904707D01*
X4297794Y913496D01*
X4300724Y921553D01*
X4303654Y928877D01*
X4308048Y936201D01*
X4313175Y943525D01*
X4319034Y949385D01*
X4325626Y955244D01*
X4332218Y960371D01*
X4339542Y964766D01*
X4346866Y968428D01*
X4354923Y970625D01*
X4363712Y972822D01*
X4373234Y973555D01*
X4382023Y974287D01*
X4391544Y973555D01*
X4401066Y972822D01*
X4409122Y970625D01*
X4417911Y968428D01*
X4425236Y964766D01*
X4432560Y960371D01*
X4439152Y955244D01*
X4445743Y949385D01*
X4450870Y943525D01*
X4455997Y936201D01*
X4460392Y929609D01*
X4464054Y921553D01*
X4466251Y913496D01*
X4468448Y905439D01*
X4469181Y896650D01*
X4469913Y887129D01*
X4536529D01*
X4535831Y901777D01*
X4534366Y917158D01*
X4530704Y931074D01*
X4526310Y944258D01*
X4519718Y956709D01*
X4512394Y968428D01*
X4503605Y980146D01*
X4493351Y990400D01*
X4482364Y999922D01*
X4470646Y1007979D01*
X4457462Y1014570D01*
X4444279Y1020430D01*
X4430362Y1024824D01*
X4414982Y1027754D01*
X4398868Y1029951D01*
X4382755Y1030684D01*
X4365909Y1029951D01*
X4349796Y1027754D01*
X4335148Y1024824D01*
X4320499Y1020430D01*
X4307316Y1014570D01*
X4294132Y1007979D01*
X4282413Y999922D01*
X4271427Y990400D01*
X4261173Y980146D01*
X4252384Y968428D01*
X4245060Y956709D01*
X4238468Y944258D01*
X4234073Y931074D01*
X4230411Y917158D01*
X4228946Y902510D01*
X4228214Y887129D01*
G37*
G36*
X4228214Y887129D02*
X4228946Y871748D01*
X4230411Y857100D01*
X4234073Y842451D01*
X4238468Y829268D01*
X4245060Y816816D01*
X4252384Y805098D01*
X4261173Y793379D01*
X4271427Y783125D01*
X4282413Y773604D01*
X4294132Y765547D01*
X4307316Y758955D01*
X4320499Y753096D01*
X4335148Y748701D01*
X4349796Y745771D01*
X4365909Y743574D01*
X4382755Y742842D01*
X4399601Y743574D01*
X4414982Y745771D01*
X4430362Y748701D01*
X4444279Y753096D01*
X4457462Y758955D01*
X4470646Y765547D01*
X4482364Y773604D01*
X4493351Y783125D01*
X4503605Y793379D01*
X4512394Y805098D01*
X4519718Y816816D01*
X4526310Y829268D01*
X4530704Y842451D01*
X4534366Y856367D01*
X4535831Y871016D01*
X4536564Y886396D01*
X4536529Y887129D01*
X4469913D01*
X4469181Y877607D01*
X4468448Y868818D01*
X4466251Y860029D01*
X4464054Y851973D01*
X4460392Y844648D01*
X4455997Y837324D01*
X4450870Y830732D01*
X4445743Y824141D01*
X4439152Y818281D01*
X4432560Y813154D01*
X4425236Y809492D01*
X4417911Y805830D01*
X4409122Y802900D01*
X4401066Y801436D01*
X4391544Y799971D01*
X4382023D01*
X4373234D01*
X4363712Y801436D01*
X4354923Y802900D01*
X4346866Y805830D01*
X4339542Y809492D01*
X4332218Y813154D01*
X4325626Y818281D01*
X4319034Y824141D01*
X4313175Y830732D01*
X4308048Y837324D01*
X4303654Y844648D01*
X4300724Y851973D01*
X4297794Y860029D01*
X4295597Y868086D01*
X4294864Y877607D01*
X4294132Y886396D01*
X4294188Y887129D01*
X4228214D01*
G37*
X5660831Y841719D02*
X5652775Y846113D01*
X5644718Y848311D01*
X5635196Y849043D01*
X5626407Y848311D01*
X5617618Y846113D01*
X5609562Y841719D01*
X5602970Y835859D01*
X5597111Y828535D01*
X5592716Y820479D01*
X5590519Y811689D01*
X5589054Y802900D01*
X5590519Y794111D01*
X5592716Y784590D01*
X5597111Y777266D01*
X5602237Y769941D01*
X5609562Y764082D01*
X5617618Y759687D01*
X5626407Y757490D01*
X5635196Y756758D01*
X5644718Y757490D01*
X5657169Y762617D01*
X5673282Y756758D01*
X5688663Y752363D01*
X5703312Y748701D01*
X5718693Y746504D01*
X5734073Y745771D01*
X5748722D01*
X5764835Y746504D01*
X5780216Y747969D01*
X5794132Y750898D01*
X5808048Y755293D01*
X5820499Y760420D01*
X5832218Y767012D01*
X5843937Y774336D01*
X5854191Y783125D01*
X5867374Y798506D01*
X5878361Y816084D01*
X5886417Y835859D01*
X5892277Y857832D01*
X5899601Y866621D01*
X5904728Y876875D01*
X5906193Y888594D01*
X5905460Y901045D01*
X5902530Y909102D01*
X5898868Y917158D01*
X5893741Y923750D01*
X5887150Y929609D01*
X5881290Y945723D01*
X5873234Y961104D01*
X5862980Y975020D01*
X5851261Y988203D01*
X5840275Y996992D01*
X5828556Y1005049D01*
X5816105Y1011641D01*
X5802921Y1016768D01*
X5789005Y1021162D01*
X5773624Y1024092D01*
X5758243Y1026289D01*
X5742130Y1027021D01*
X5726749Y1026289D01*
X5712833Y1024824D01*
X5699650Y1021895D01*
X5686466Y1017500D01*
X5674015Y1012373D01*
X5663029Y1006514D01*
X5652042Y999189D01*
X5641788Y990400D01*
X5632267Y980879D01*
X5624210Y970625D01*
X5616886Y959639D01*
X5611027Y948652D01*
X5606632Y936934D01*
X5603702Y925215D01*
X5601505Y912031D01*
Y899580D01*
Y890791D01*
X5602970Y883467D01*
X5605900Y878340D01*
X5609562Y873945D01*
X5614689Y871016D01*
X5623478Y869551D01*
X5634464Y868086D01*
X5649112D01*
X5820499D01*
X5824894Y861494D01*
X5830753Y855635D01*
X5827823Y843916D01*
X5822696Y833662D01*
X5816837Y824141D01*
X5808780Y816084D01*
X5796329Y807295D01*
X5781681Y800703D01*
X5764103Y797041D01*
X5744327Y796309D01*
X5730411Y797041D01*
X5714298Y799971D01*
X5698185Y804365D01*
X5681339Y810957D01*
Y811689D01*
X5678409Y820479D01*
X5674015Y829268D01*
X5668155Y835859D01*
X5660831Y841719D01*
X5800724Y959639D02*
X5808780Y952314D01*
X5816105Y943525D01*
X5821964Y934736D01*
X5827091Y923750D01*
X5820499Y916426D01*
X5664493Y915693D01*
X5667423Y928145D01*
X5672550Y939863D01*
X5679874Y950117D01*
X5688663Y958906D01*
X5700382Y966963D01*
X5712833Y972090D01*
X5726749Y975752D01*
X5742130Y977217D01*
X5758976Y975752D01*
X5774357Y972822D01*
X5788273Y966963D01*
X5800724Y959639D01*
X5847599Y872480D02*
X5843937Y875410D01*
X5841007Y879072D01*
X5838810Y882734D01*
X5837345Y887129D01*
Y891523D01*
Y895918D01*
X5838810Y900312D01*
X5841007Y903975D01*
X5843937Y907637D01*
X5847599Y910566D01*
X5851261Y912764D01*
X5855655Y913496D01*
X5860050Y914229D01*
X5864445Y913496D01*
X5868839Y912764D01*
X5873234Y910566D01*
X5876163Y907637D01*
X5879093Y904707D01*
X5882755Y896650D01*
Y891523D01*
Y887129D01*
X5881290Y883467D01*
X5879093Y879072D01*
X5876896Y875410D01*
X5873234Y873213D01*
X5869571Y871016D01*
X5865177Y869551D01*
X5860782Y868818D01*
X5856388Y869551D01*
X5851993Y871016D01*
X5847599Y872480D01*
X5622745Y783857D02*
X5619083Y786787D01*
X5616886Y790449D01*
X5614689Y794111D01*
X5613224Y799238D01*
X5612491Y803633D01*
X5613224Y808027D01*
X5614689Y811689D01*
X5616154Y816084D01*
X5622745Y821943D01*
X5630802Y825605D01*
X5635929Y826338D01*
X5640323Y825605D01*
X5644718Y824141D01*
X5648380Y821943D01*
X5652042Y819014D01*
X5654972Y815352D01*
X5657902Y807295D01*
X5658634Y802900D01*
X5657902Y798506D01*
X5657169Y794111D01*
X5654239Y790449D01*
X5651310Y786787D01*
X5647648Y783857D01*
X5643986Y781660D01*
X5639591Y780928D01*
X5635196Y780195D01*
X5630802Y780928D01*
X5627140Y781660D01*
X5622745Y783857D01*
X5589115Y803266D02*
G36*
X5589115Y803266D02*
X5612552D01*
X5612491Y803633D01*
X5613224Y808027D01*
X5614689Y811689D01*
X5616154Y816084D01*
X5622745Y821943D01*
X5630802Y825605D01*
X5635929Y826338D01*
X5640323Y825605D01*
X5644718Y824141D01*
X5648380Y821943D01*
X5652042Y819014D01*
X5654972Y815352D01*
X5657902Y807295D01*
X5658573Y803266D01*
X5702215D01*
X5698185Y804365D01*
X5681339Y810957D01*
Y811689D01*
X5678409Y820479D01*
X5674015Y829268D01*
X5668155Y835859D01*
X5660831Y841719D01*
X5652775Y846113D01*
X5644718Y848311D01*
X5635196Y849043D01*
X5626407Y848311D01*
X5617618Y846113D01*
X5609562Y841719D01*
X5602970Y835859D01*
X5597111Y828535D01*
X5592716Y820479D01*
X5590519Y811689D01*
X5589115Y803266D01*
G37*
X5589054Y802900D02*
G36*
X5589054Y802900D02*
X5590519Y794111D01*
X5592716Y784590D01*
X5597111Y777266D01*
X5602237Y769941D01*
X5609562Y764082D01*
X5617618Y759687D01*
X5626407Y757490D01*
X5635196Y756758D01*
X5644718Y757490D01*
X5657169Y762617D01*
X5673282Y756758D01*
X5688663Y752363D01*
X5703312Y748701D01*
X5718693Y746504D01*
X5734073Y745771D01*
X5748722D01*
X5764835Y746504D01*
X5780216Y747969D01*
X5794132Y750898D01*
X5808048Y755293D01*
X5820499Y760420D01*
X5832218Y767012D01*
X5843937Y774336D01*
X5854191Y783125D01*
X5867374Y798506D01*
X5870349Y803266D01*
X5787376D01*
X5781681Y800703D01*
X5764103Y797041D01*
X5744327Y796309D01*
X5730411Y797041D01*
X5714298Y799971D01*
X5702215Y803266D01*
X5658573D01*
X5658634Y802900D01*
X5657902Y798506D01*
X5657169Y794111D01*
X5654239Y790449D01*
X5651310Y786787D01*
X5647648Y783857D01*
X5643986Y781660D01*
X5639591Y780928D01*
X5635196Y780195D01*
X5630802Y780928D01*
X5627140Y781660D01*
X5622745Y783857D01*
X5619083Y786787D01*
X5616886Y790449D01*
X5614689Y794111D01*
X5613224Y799238D01*
X5612552Y803266D01*
X5589115D01*
X5589054Y802900D01*
G37*
X5610203Y946455D02*
G36*
X5610203Y946455D02*
X5677258D01*
X5679874Y950117D01*
X5688663Y958906D01*
X5700382Y966963D01*
X5712833Y972090D01*
X5726749Y975752D01*
X5742130Y977217D01*
X5758976Y975752D01*
X5774357Y972822D01*
X5788273Y966963D01*
X5800724Y959639D01*
X5808780Y952314D01*
X5813663Y946455D01*
X5880907D01*
X5873234Y961104D01*
X5862980Y975020D01*
X5851261Y988203D01*
X5840275Y996992D01*
X5828556Y1005049D01*
X5816105Y1011641D01*
X5802921Y1016768D01*
X5789005Y1021162D01*
X5773624Y1024092D01*
X5758243Y1026289D01*
X5742130Y1027021D01*
X5726749Y1026289D01*
X5712833Y1024824D01*
X5699650Y1021895D01*
X5686466Y1017500D01*
X5674015Y1012373D01*
X5663029Y1006514D01*
X5652042Y999189D01*
X5641788Y990400D01*
X5632267Y980879D01*
X5624210Y970625D01*
X5616886Y959639D01*
X5611027Y948652D01*
X5610203Y946455D01*
G37*
X5601505Y912031D02*
G36*
X5601505Y912031D02*
Y899580D01*
Y891523D01*
X5837345D01*
Y895918D01*
X5838810Y900312D01*
X5841007Y903975D01*
X5843937Y907637D01*
X5847599Y910566D01*
X5851261Y912764D01*
X5855655Y913496D01*
X5860050Y914229D01*
X5864445Y913496D01*
X5868839Y912764D01*
X5873234Y910566D01*
X5876163Y907637D01*
X5879093Y904707D01*
X5882755Y896650D01*
Y891523D01*
X5906021D01*
X5905460Y901045D01*
X5902530Y909102D01*
X5898868Y917158D01*
X5893741Y923750D01*
X5887150Y929609D01*
X5881290Y945723D01*
X5880907Y946455D01*
X5813663D01*
X5816105Y943525D01*
X5821964Y934736D01*
X5827091Y923750D01*
X5820499Y916426D01*
X5664493Y915693D01*
X5667423Y928145D01*
X5672550Y939863D01*
X5677258Y946455D01*
X5610203D01*
X5606632Y936934D01*
X5603702Y925215D01*
X5601505Y912031D01*
G37*
Y891523D02*
G36*
X5601505Y891523D02*
Y890791D01*
X5602970Y883467D01*
X5605900Y878340D01*
X5609562Y873945D01*
X5614689Y871016D01*
X5623478Y869551D01*
X5634464Y868086D01*
X5649112D01*
X5820499D01*
X5824894Y861494D01*
X5830753Y855635D01*
X5827823Y843916D01*
X5822696Y833662D01*
X5816837Y824141D01*
X5808780Y816084D01*
X5796329Y807295D01*
X5787376Y803266D01*
X5870349D01*
X5878361Y816084D01*
X5886417Y835859D01*
X5892277Y857832D01*
X5899601Y866621D01*
X5904728Y876875D01*
X5906193Y888594D01*
X5906021Y891523D01*
X5882755D01*
Y887129D01*
X5881290Y883467D01*
X5879093Y879072D01*
X5876896Y875410D01*
X5873234Y873213D01*
X5869571Y871016D01*
X5865177Y869551D01*
X5860782Y868818D01*
X5856388Y869551D01*
X5851993Y871016D01*
X5847599Y872480D01*
X5843937Y875410D01*
X5841007Y879072D01*
X5838810Y882734D01*
X5837345Y887129D01*
Y891523D01*
X5601505D01*
G37*
D02*
D107*
X4065425Y1475088D02*
X4065426Y1475089D01*
X4065425Y1522147D02*
X4065425Y1757441D01*
X3893425Y1475088D02*
X3775778Y1757441D01*
X3658131Y1475088D01*
X3846366Y1592735D02*
X3705190Y1592735D01*
X3569425Y1757441D02*
X3569425Y1475088D01*
X3334131D01*
X3245425D02*
X3127778Y1757441D01*
X3010131Y1475088D01*
X3198366Y1592735D02*
X3057190Y1592735D01*
X2921425Y1475088D02*
X2921425Y1757441D01*
X2756719D01*
X2709660Y1733912D01*
X2686131Y1686853D01*
X2709660Y1639794D01*
X2756719Y1616265D01*
X2921425D01*
X2756719D02*
X2686131Y1475088D01*
X2597425D02*
X2597425Y1757441D01*
X2479778Y1616265D01*
X2362131Y1757441D01*
Y1475088D01*
X4004190Y2387618D02*
X4027719Y2364088D01*
X4074778D01*
X4121837D01*
X4168896Y2387618D01*
X4192425Y2434676D01*
Y2505265D01*
X4168896Y2528794D01*
X4121837Y2552324D01*
X4074778D01*
X4027719Y2528794D01*
X4004190Y2505265D01*
Y2481735D01*
X4027719Y2458206D01*
X4074778Y2434676D01*
X4121837D01*
X4168896Y2458206D01*
X4192425Y2481735D01*
X3920425Y2364088D02*
X3920425Y2646441D01*
Y2505265D02*
X3685131Y2505265D01*
Y2364088D02*
X3685131Y2646441D01*
X3596425Y2528794D02*
X3549366Y2552324D01*
X3478778D01*
X3431719Y2528794D01*
X3408190Y2481735D01*
Y2411147D01*
X3431719Y2387618D01*
X3478778Y2364088D01*
X3525837D01*
X3572896Y2387618D01*
X3596425Y2411147D01*
Y2434676D01*
X3572896Y2458206D01*
X3525837Y2481735D01*
X3478778D01*
X3431719Y2458206D01*
X3408190Y2434676D01*
Y2411147D02*
X3408190Y2364088D01*
X3324425Y2411147D02*
X3300896Y2387618D01*
X3253837Y2364088D01*
X3206778Y2387618D01*
X3183249Y2411147D01*
Y2646441D01*
X3136190D01*
X3183249D02*
X3277366Y2646441D01*
X3052425Y2434676D02*
X3028896Y2387618D01*
X2981837Y2364088D01*
X2934778D01*
X2887719Y2387618D01*
X2864190Y2434676D01*
Y2481735D01*
X2887719Y2528794D01*
X2934778Y2552324D01*
X2981837D01*
X3028896Y2528794D01*
X3052425Y2481735D01*
Y2434676D01*
X2756896Y2364088D02*
X2733366Y2387618D01*
X2756896Y2411147D01*
X2780425Y2387618D01*
X2756896Y2364088D01*
X2468190Y2481735D02*
X2491719Y2528794D01*
X2538778Y2552324D01*
X2585837D01*
X2632896Y2528794D01*
X2656425Y2481735D01*
Y2434676D01*
X2632896Y2387618D01*
X2585837Y2364088D01*
X2538778D01*
X2491719Y2387618D01*
X2468190Y2434676D01*
Y2364088D02*
X2468190Y2646441D01*
X2196190Y2387618D02*
X2219719Y2364088D01*
X2266778D01*
X2313837D01*
X2360896Y2387618D01*
X2384425Y2434676D01*
Y2505265D01*
X2360896Y2528794D01*
X2313837Y2552324D01*
X2266778D01*
X2219719Y2528794D01*
X2196190Y2505265D01*
Y2481735D01*
X2219719Y2458206D01*
X2266778Y2434676D01*
X2313837D01*
X2360896Y2458206D01*
X2384425Y2481735D01*
D02*
D108*
X6029373Y1346090D02*
X6109728Y1324559D01*
X6131259Y1404913D01*
X6013092Y1397821D02*
X5991138Y1412315D01*
X5979373Y1432692D01*
X5977798Y1458952D01*
X5992292Y1480905D01*
X6018552Y1482481D01*
X6040504Y1467986D01*
X6052269Y1447609D01*
X6040504Y1467986D02*
X6038929Y1494246D01*
X6053423Y1516199D01*
X6079683Y1517775D01*
X6101636Y1503281D01*
X6113401Y1482903D01*
X6114977Y1456644D01*
X5897785Y1574007D02*
X6020048Y1644595D01*
X5929504Y1660244D01*
X5961225Y1746481D01*
X5838962Y1675892D01*
X5888105Y1755479D02*
X5886529Y1781739D01*
X5868882Y1812305D01*
X5846929Y1826799D01*
X5820669Y1825224D01*
X5790104Y1807577D01*
X5785798Y1791505D01*
X5787373Y1765246D01*
X5799138Y1744868D01*
X5821092Y1730374D01*
X5837163Y1726068D01*
X5847351Y1731950D01*
X5851657Y1748021D01*
X5850081Y1774280D01*
X5838316Y1794658D01*
X5816363Y1809152D01*
X5800292Y1813459D01*
X5790104Y1807577D02*
X5769726Y1795812D01*
X5773046Y1954768D02*
X5795000Y1940272D01*
X5812647Y1909707D01*
X5814223Y1883448D01*
X5799728Y1861494D01*
X5779351Y1849729D01*
X5753092Y1848154D01*
X5731138Y1862648D01*
X5713491Y1893213D01*
X5711915Y1919474D01*
X5700740Y2056476D02*
X5678787Y2070970D01*
X5652527Y2069394D01*
X5638033Y2047441D01*
X5639609Y2021182D01*
X5680785Y1949862D01*
X5803048Y2020450D01*
X5761872Y2091770D01*
X5739918Y2106264D01*
X5713658Y2104688D01*
X5699164Y2082735D01*
X5700740Y2056476D01*
X5741916Y1985156D01*
X5593903Y2100347D02*
X5599785Y2090158D01*
X5722048Y2160747D01*
X5656294Y2180518D02*
X5605351Y2151106D01*
X5579092Y2149531D01*
X5557138Y2164025D01*
X5545373Y2184402D01*
X5543798Y2210662D01*
X5558292Y2232615D01*
X5609235Y2262027D02*
X5527726Y2214968D01*
X5506785Y2251239D02*
X5588294Y2298298D01*
X5578105Y2292415D02*
X5582411Y2308487D01*
X5570647Y2328863D01*
X5554576Y2333170D01*
X5524010Y2315523D01*
X5554576Y2333170D02*
X5558882Y2349241D01*
X5547117Y2369618D01*
X5531046Y2373924D01*
X5459726Y2332747D01*
X5401915Y2456409D02*
X5397609Y2440338D01*
X5409373Y2419961D01*
X5421138Y2399584D01*
X5443092Y2385089D01*
X5469351Y2386665D01*
X5499916Y2404312D01*
X5504223Y2420383D01*
X5502647Y2446643D01*
X5490882Y2467020D01*
X5468929Y2481514D01*
X5452857Y2485821D01*
X5442669Y2479939D01*
X5438363Y2463867D01*
X5439939Y2437608D01*
X5451704Y2417231D01*
X5473657Y2402736D01*
X5489728Y2398430D01*
X0Y0D02*
M02*
